<svg xmlns="http://www.w3.org/2000/svg" width="184" height="32" viewBox="0 0 184 32">
    <g fill="none" fill-rule="evenodd">
        <path fill="#00AFCC" d="M13 3H29V19H13z"/>
        <path fill="#F1A06F" d="M3 13H19V29H3z"/>
        <path fill="#032128" fill-rule="nonzero" d="M48.824 24v-5.078h1.299c1.77 0 3.136-.407 4.097-1.22.96-.815 1.44-1.99 1.44-3.526 0-1.478-.45-2.59-1.352-3.335-.902-.746-2.219-1.118-3.95-1.118h-4.561V24h3.027zm.996-7.559h-.996v-4.238h1.377c.827 0 1.434.17 1.821.508.388.338.582.863.582 1.572 0 .703-.232 1.239-.694 1.607-.462.367-1.159.551-2.09.551zm13.742 7.754c.853 0 1.576-.063 2.168-.19.593-.127 1.15-.32 1.67-.581v-2.305c-.638.3-1.25.518-1.836.654-.585.137-1.207.206-1.865.206-.846 0-1.504-.238-1.972-.713-.47-.476-.72-1.136-.752-1.983h7.04v-1.445c0-1.55-.43-2.764-1.288-3.643-.86-.879-2.061-1.318-3.604-1.318-1.615 0-2.88.5-3.794 1.499-.915 1-1.372 2.414-1.372 4.243 0 1.777.495 3.151 1.484 4.121.99.97 2.364 1.455 4.121 1.455zm1.66-6.894h-4.179c.052-.736.257-1.304.615-1.704.358-.4.853-.6 1.485-.6.631 0 1.132.2 1.503.6.372.4.564.968.577 1.704zM73.917 24v-5.557c0-.879.265-1.562.796-2.05.53-.489 1.271-.733 2.222-.733.345 0 .638.033.879.098l.224-2.793c-.267-.059-.602-.088-1.006-.088-.677 0-1.303.187-1.88.561-.576.375-1.033.868-1.372 1.48h-.146l-.44-1.836h-2.255V24h2.978zm10.06 0v-8.682h2.579v-2.236h-2.578v-.684c0-.39.094-.71.283-.961.189-.251.495-.376.918-.376.508 0 1.06.094 1.66.283l.762-2.188c-.801-.306-1.716-.459-2.745-.459-1.347 0-2.327.287-2.939.86-.612.573-.918 1.48-.918 2.724v.801l-1.64.8v1.436h1.64V24h2.979zm9.73.195c.852 0 1.575-.063 2.167-.19.592-.127 1.15-.32 1.67-.581v-2.305c-.638.3-1.25.518-1.836.654-.586.137-1.208.206-1.865.206-.847 0-1.504-.238-1.973-.713-.469-.476-.72-1.136-.752-1.983h7.041v-1.445c0-1.55-.43-2.764-1.289-3.643-.86-.879-2.06-1.318-3.603-1.318-1.615 0-2.88.5-3.794 1.499-.915 1-1.372 2.414-1.372 4.243 0 1.777.494 3.151 1.484 4.121.99.97 2.363 1.455 4.121 1.455zm1.66-6.894h-4.18c.052-.736.257-1.304.615-1.704.358-.4.853-.6 1.484-.6.632 0 1.133.2 1.504.6.371.4.563.968.576 1.704zm10.148 6.894c.748 0 1.368-.058 1.86-.175.492-.118.978-.33 1.46-.635v-2.55c-.488.326-.977.566-1.465.719-.488.153-1.019.23-1.592.23-1.55 0-2.324-1.069-2.324-3.204 0-2.2.775-3.3 2.324-3.3.404 0 .808.06 1.211.18.404.12.84.275 1.309.464l.879-2.305c-1.003-.495-2.136-.742-3.399-.742-1.725 0-3.05.49-3.974 1.47-.925.98-1.387 2.397-1.387 4.253 0 3.73 1.7 5.595 5.098 5.595zm10.09 0c1.08 0 1.992-.166 2.734-.498V21.48c-.73.228-1.354.342-1.875.342-.39 0-.705-.1-.942-.302-.238-.202-.357-.515-.357-.938v-5.264h3.057v-2.236h-3.057v-2.324h-1.904l-.86 2.305-1.64.996v1.26h1.426v5.263c0 1.204.271 2.108.815 2.71.544.602 1.411.903 2.603.903zM130.002 24v-5.078h1.299c1.77 0 3.136-.407 4.096-1.22.96-.815 1.44-1.99 1.44-3.526 0-1.478-.45-2.59-1.352-3.335-.901-.746-2.218-1.118-3.95-1.118h-4.56V24h3.027zm.996-7.559h-.996v-4.238h1.377c.827 0 1.434.17 1.821.508.388.338.581.863.581 1.572 0 .703-.23 1.239-.693 1.607-.462.367-1.159.551-2.09.551zm11.457 7.754c.853 0 1.545-.122 2.075-.366.53-.244 1.047-.682 1.548-1.313h.078l.576 1.484h2.08v-7.275c0-1.302-.39-2.273-1.171-2.91-.782-.639-1.905-.958-3.37-.958-1.53 0-2.923.33-4.18.987l.987 2.011c1.179-.527 2.204-.79 3.076-.79 1.133 0 1.7.553 1.7 1.66v.478l-1.895.059c-1.634.058-2.856.363-3.667.913-.81.55-1.216 1.404-1.216 2.563 0 1.107.301 1.96.903 2.559.603.599 1.428.898 2.476.898zm1.123-2.177c-.963 0-1.445-.42-1.445-1.26 0-.586.211-1.022.635-1.309.423-.286 1.067-.442 1.933-.469l1.153-.039v.899c0 .657-.207 1.185-.62 1.582-.414.397-.966.596-1.656.596zM155.358 24v-5.137c0-1.289.185-2.212.556-2.768.371-.557.973-.835 1.807-.835.612 0 1.058.197 1.338.59.28.394.42.985.42 1.773V24h2.978v-7.12c0-1.295-.329-2.286-.986-2.973-.658-.687-1.621-1.03-2.89-1.03-.743 0-1.406.135-1.988.405-.583.27-1.04.67-1.372 1.197h-.166l-.4-1.397h-2.276V24h2.978zm15.607.195c.853 0 1.575-.063 2.168-.19.592-.127 1.149-.32 1.67-.581v-2.305c-.638.3-1.25.518-1.836.654-.586.137-1.208.206-1.865.206-.847 0-1.504-.238-1.973-.713-.469-.476-.72-1.136-.752-1.983h7.041v-1.445c0-1.55-.43-2.764-1.29-3.643-.858-.879-2.06-1.318-3.603-1.318-1.614 0-2.879.5-3.794 1.499-.914 1-1.372 2.414-1.372 4.243 0 1.777.495 3.151 1.485 4.121.99.97 2.363 1.455 4.12 1.455zm1.66-6.894h-4.18c.052-.736.257-1.304.616-1.704.358-.4.852-.6 1.484-.6.631 0 1.133.2 1.504.6.37.4.563.968.576 1.704zM181.318 24V8.805h-2.978V24h2.978z"/>
    </g>
</svg>
